<?xml version="1.0" standalone="no"?>
<!DOCTYPE svg PUBLIC "-//W3C//DTD SVG 20010904//EN"
 "http://www.w3.org/TR/2001/REC-SVG-20010904/DTD/svg10.dtd">
<svg version="1.0" xmlns="http://www.w3.org/2000/svg"
 width="459.000000pt" height="305.000000pt" viewBox="0 0 459.000000 305.000000"
 preserveAspectRatio="xMidYMid meet">

<g transform="translate(0.000000,305.000000) scale(0.100000,-0.100000)"
fill="#000000" stroke="none">
<path d="M0 1525 l0 -1525 2295 0 2295 0 0 1525 0 1525 -2295 0 -2295 0 0
-1525z m1090 1230 c181 -47 342 -179 424 -347 47 -95 65 -171 72 -293 10 -183
-42 -343 -159 -490 -82 -103 -158 -155 -297 -206 -56 -20 -83 -23 -205 -24
-129 0 -146 2 -215 28 -109 41 -164 74 -228 136 -83 81 -109 117 -148 199 -76
162 -91 367 -41 542 34 119 58 165 127 244 95 109 217 186 334 211 85 19 265
19 336 0z m1773 -61 c123 -32 259 -119 339 -217 54 -66 113 -183 133 -262 24
-95 29 -247 11 -340 -37 -191 -183 -393 -341 -472 -111 -56 -163 -67 -310 -68
-135 0 -143 1 -230 34 -129 49 -195 98 -300 226 -120 146 -165 427 -102 645
34 119 58 165 127 244 95 108 218 186 334 211 87 19 265 19 339 -1z m-1027
-391 c57 -29 97 -98 96 -166 -1 -98 -70 -192 -167 -229 -47 -18 -121 -32 -133
-24 -4 2 -4 45 0 94 6 62 5 129 -5 215 -16 147 -23 137 99 133 48 -2 85 -10
110 -23z m1771 -61 c92 -48 123 -171 67 -269 -49 -85 -101 -122 -207 -145 -73
-15 -74 -14 -65 90 6 62 5 129 -5 215 -15 147 -22 137 98 133 48 -2 83 -10
112 -24z m341 -1301 c3 -19 -13 -40 -75 -100 -173 -168 -430 -300 -730 -376
-195 -49 -278 -59 -473 -60 -202 0 -296 15 -480 75 -192 63 -296 129 -350 224
-55 95 -30 132 40 60 107 -111 386 -189 716 -201 321 -11 566 43 978 216 174
73 286 133 320 170 25 27 50 23 54 -8z"/>
<path d="M833 2565 c-85 -19 -139 -45 -201 -98 -72 -63 -94 -91 -138 -177
l-39 -75 0 -135 c0 -134 0 -135 36 -210 78 -162 214 -255 405 -275 111 -12
274 51 360 140 237 243 155 687 -147 797 -74 27 -165 49 -197 47 -9 0 -45 -7
-79 -14z m222 -81 c25 -15 53 -37 61 -50 53 -80 -123 -220 -289 -230 -60 -3
-84 0 -147 23 -81 30 -100 53 -86 107 9 35 82 109 135 136 108 55 242 61 326
14z"/>
<path d="M2623 2509 c-85 -15 -155 -46 -216 -98 -77 -67 -98 -93 -143 -181
l-39 -75 0 -135 0 -135 37 -77 c77 -161 213 -253 405 -273 70 -8 135 8 242 56
276 125 342 550 121 783 -94 100 -272 159 -407 135z m202 -85 c25 -15 53 -37
61 -50 53 -80 -123 -220 -289 -230 -60 -3 -84 0 -147 23 -59 22 -77 33 -84 54
-14 40 0 76 50 125 105 106 294 142 409 78z"/>
</g>
</svg>
